<?xml version="1.0" encoding="utf-8"?>
<!-- Generator: Adobe Illustrator 27.0.0, SVG Export Plug-In . SVG Version: 6.00 Build 0)  -->
<svg version="1.1" id="Layer_1" xmlns="http://www.w3.org/2000/svg" xmlns:xlink="http://www.w3.org/1999/xlink" x="0px" y="0px"
	 viewBox="0 0 612 372" style="enable-background:new 0 0 612 372;" xml:space="preserve">
<g>
	<path d="M603.6,4.6l-146.8,73C423.2,30.7,368.3,0.1,306.2,0.1c-62.1,0-117,30.6-150.6,77.6L8.8,4.6C1.5,1-1.6,7.6,1.8,19.2l12,41.3
		C17.2,72.2,26,84,33.4,86.8l98.2,37c-2.3,6.6-4.3,13.5-5.8,20.4L21.1,112.1c-6.3-1.9-8.7,4.1-5.2,13.4l12.3,33.1
		c3.5,9.3,11.6,18,18,19.2l75.2,14.4c0.3,7,0.9,13.9,1.9,20.6l-89.7-11.1c-5.5-0.7-7.1,4.8-3.7,12.1L42,240.1
		c3.4,7.4,10.7,13.4,16.2,13.5l76.5,0.8c2.4,6,5.2,11.9,8.2,17.6l-97.4,5.5c-4.7,0.3-5.8,5.1-2.5,10.8l11.6,20.2
		c3.3,5.7,9.7,9.7,14.4,8.9l93.6-15.9c33.9,41.8,85.7,68.5,143.7,68.5c58,0,109.8-26.7,143.7-68.5l93.6,15.9
		c4.6,0.8,11.1-3.2,14.4-8.9l11.6-20.2c3.3-5.7,2.1-10.6-2.5-10.8l-97.4-5.5c3-5.7,5.8-11.6,8.2-17.6l76.5-0.8
		c5.5,0,12.7-6.1,16.2-13.5l12.1-26.1c3.4-7.4,1.7-12.8-3.7-12.1l-89.7,11.1c1-6.8,1.6-13.7,1.9-20.6l75.2-14.4
		c6.4-1.2,14.5-9.9,17.9-19.2l12.3-33.1c3.5-9.3,1.1-15.4-5.2-13.4l-104.6,32.1c-1.6-7-3.5-13.8-5.9-20.4l98.2-37
		c7.4-2.8,16.2-14.6,19.6-26.3l12-41.3C614,7.6,610.9,1,603.6,4.6z M306.2,324.9c-77.2,0-139.8-62.6-139.8-139.8
		S229,45.2,306.2,45.2c77.2,0,139.9,62.6,139.9,139.8S383.4,324.9,306.2,324.9z"/>
	<path d="M342,252c-0.6-8-3.3-51.5-3.3-51.5c-0.6-8-0.2-16.4-0.2-16.4h-0.4c0,0-2,8.2-5,16.4c0,0-14.7,40.9-19.2,51.5h-22.1
		c-3.7-9.1-19.2-51.5-19.2-51.5c-3.2-8.7-5-16.4-5-16.4l-0.4,0.2c0,0,0.6,7.4,0,16.2c0,0-2.6,42.4-3.2,51.5h-41.6l13.9-127.9h48.2
		l16.5,50.6c2.4,7.4,3.9,14.3,3.9,14.3h0.6c0,0,1.9-6.9,4.5-14.1l18.2-50.8H376L390.3,252H342z"/>
</g>
</svg>
